<svg xmlns="http://www.w3.org/2000/svg" xmlns:xlink="http://www.w3.org/1999/xlink" version="1.1" x="0px" y="0px" viewBox="0 0 100 100" xml:space="preserve" class="style0"><style>.style0{enable-background:	new 0 0 100 100;}</style><style type="text/css">.st0{display:none;}.st1{display:inline;fill:#FFFFFF;}.st2{fill:#73C04B;}.st3{fill:#109FDA;}.st4{fill:#0AA0DB;}</style><g class="st0"><path class="st1" d="M7.5 90.3c-0.1-0.1-0.1-0.2 0-0.3c0.3-0.4 0.6-0.8 0.7-1.3c0.3-0.6 0.4-1.2 0.6-1.9c0.2-0.5 0.5-0.8 1-0.8 c0.2 0 0.3 0 0.5 0c0-0.7 0-1.4 0-2.1c-0.2 0-0.3-0.1-0.5-0.1c-0.6-0.1-1.2-0.1-1.8 0.1c-1.1 0.3-1.7 1-2 2.1 c-0.2 0.6-0.3 1.2-0.5 1.8c-0.1 0.3-0.3 0.6-0.6 0.7c-0.5 0.2-1.1 0.2-1.7 0.2c0-1.6 0-3.2 0-4.7c-1.1 0-2.1 0-3.1 0 C0 88 0 92 0 96c1 0 2.1 0 3.1 0c0-1.6 0-3.1 0-4.7c0.4 0 0.8 0 1.2 0c0.2 0 0.3 0.1 0.4 0.2c0.8 1.4 1.6 2.8 2.4 4.3 c0 0.1 0.2 0.2 0.2 0.2c1.1 0 2.2 0 3.2 0c0 0 0.1 0 0.1 0c0-0.3 0-0.5-0.1-0.7C9.6 93.6 8.5 92 7.5 90.3z"/><path class="st1" d="M67.2 89.2c-0.8-0.3-1.6-0.4-2.4-0.5c-0.5-0.1-0.9-0.1-1.4-0.2c-0.5-0.1-0.7-0.4-0.7-0.9c0-0.5 0.2-0.9 0.7-1 c0.4-0.1 0.8-0.1 1.2-0.2c0.1 0 0.2 0 0.3 0c0.6 0.1 1 0.5 1.1 1.1c1 0 1.9 0 2.9 0c0-0.6-0.1-1.2-0.4-1.8c-0.6-1.1-1.6-1.7-2.7-2 c-0.4-0.1-0.7-0.1-1.1-0.2c-0.3 0-0.5 0-0.8 0c-0.4 0.1-0.8 0.1-1.1 0.2c-1.8 0.4-2.9 1.6-3.1 3.3c-0.2 1.5 0.3 2.7 1.8 3.4 c0.8 0.4 1.6 0.5 2.4 0.6c0.5 0 1 0.1 1.5 0.2c0.1 0 0.3 0.1 0.4 0.2c0.7 0.4 0.7 1.3 0.1 1.7c-0.7 0.4-1.4 0.5-2.2 0.3 c-0.6-0.2-1-0.5-1.1-1.1c-0.1 0-0.2 0-0.2 0c-0.8 0-1.6 0-2.4 0c-0.3 0-0.3 0-0.3 0.3c0.1 1.3 0.7 2.3 1.8 2.9 c2.1 1.1 4.2 1.1 6.3-0.1c1.2-0.7 1.8-1.8 1.7-3.2C69.3 90.7 68.6 89.7 67.2 89.2z"/><path class="st1" d="M84.2 83.9c-0.2 0-0.5 0-0.7 0c-0.1 0-0.2 0.1-0.3 0.1c-1.3 1.4-2.5 2.7-3.8 4.1c-0.3 0.3-0.6 0.6-0.9 1 c-0.1-0.1-0.1-0.1-0.2-0.2c-1.4-1.5-2.7-2.9-4-4.4c-0.4-0.5-0.8-0.7-1.4-0.6c-0.2 0-0.3 0.1-0.3 0.3c0 3.9 0 7.7 0 11.6 c0 0.1 0 0.2 0 0.2c1.1 0 2.1 0 3.1 0c0-1.8 0-3.7 0-5.5c0 0 0.1 0 0.1-0.1c0 0.1 0.1 0.2 0.1 0.2c0.7 0.8 1.5 1.5 2.2 2.3 c0.2 0.2 0.5 0.3 0.7 0c0.7-0.8 1.5-1.5 2.2-2.3c0.1-0.1 0.1-0.1 0.2-0.2c0 1.9 0 3.7 0 5.6c1.1 0 2.1 0 3.1 0c0-0.1 0-0.2 0-0.3 c0-3.8 0-7.7 0-11.5c0 0 0-0.1 0-0.1C84.4 83.9 84.4 83.9 84.2 83.9z"/><path class="st1" d="M100 90.1c0-0.5 0-0.9 0-1.3c-0.2-1.5-0.9-2.9-2.2-3.8c-1.7-1.3-3.6-1.6-5.7-1.1c-1.9 0.5-3.2 1.6-4 3.4 c-0.5 1.2-0.6 2.5-0.4 3.8c0.3 2 1.3 3.6 3.2 4.5c1.2 0.6 2.5 0.7 3.9 0.6c1.9-0.3 3.4-1.1 4.3-2.8C99.8 92.3 100.1 91.2 100 90.1z M96.5 91.6c-0.6 1.1-1.8 1.8-3.1 1.6c-1.3-0.2-2.3-1.1-2.6-2.4c-0.1-0.7-0.1-1.4 0.1-2c0.4-1.3 1.5-2.1 2.9-2.1 c1.6 0 2.8 1.1 3 2.7C97 90.2 96.9 90.9 96.5 91.6z"/><path class="st1" d="M46.7 93.7c-0.4-0.7-0.8-1.3-1.2-2c0.2-0.2 0.5-0.4 0.7-0.6c0.9-1 1.2-2.3 1.1-3.7C47 85.7 45.7 84.3 44 84 c-0.8-0.1-1.6-0.1-2.3-0.1c-1.3 0-2.5 0-3.8 0c-0.1 0-0.2 0-0.2 0c0 4 0 8 0 12c1 0 2.1 0 3.1 0c0-0.1 0-0.2 0-0.3 c0-1.1 0-2.1 0-3.2c0-0.2 0-0.3 0.2-0.2c0.4 0 0.8 0 1.2 0c0.2 0 0.3 0.1 0.4 0.2c0.6 1.1 1.2 2.2 1.8 3.4c0.1 0.1 0.2 0.2 0.3 0.2 c0.4 0 0.8 0 1.3 0c0.6 0 1.2 0 1.8 0c0-0.3 0-0.5-0.1-0.7C47.4 94.8 47.1 94.3 46.7 93.7z M44 89c-0.2 0.3-0.5 0.6-0.8 0.6 c-0.8 0-1.6 0-2.4 0c0-1 0-2 0-3c0.1 0 0.2 0 0.3 0c0.6 0 1.2 0 1.8 0c0.7 0 1.2 0.4 1.3 1.1C44.3 88.2 44.2 88.6 44 89z"/><path class="st1" d="M34.2 93.4c-1.5-3.1-2.9-6.2-4.4-9.4c-0.1-0.2-0.2-0.2-0.3-0.2c-0.3 0-0.6 0-0.9 0c-0.2 0-0.3 0.1-0.4 0.2 c-1.8 3.8-3.6 7.6-5.3 11.4c-0.1 0.2-0.1 0.4-0.1 0.6c1.1 0 2.2 0 3.2 0c0.1 0 0.1-0.1 0.2-0.1c0.2-0.4 0.4-0.8 0.5-1.2 c0.1-0.1 0.1-0.2 0.3-0.2c1.4 0 2.7 0 4.1 0c0.1 0 0.2 0 0.3 0.2c0.2 0.4 0.4 0.8 0.6 1.2c0 0.1 0.1 0.1 0.2 0.1c1 0 2.1 0 3.2 0 c-0.1-0.3-0.1-0.5-0.2-0.7C34.8 94.7 34.5 94 34.2 93.4z M27.7 91.8c0.4-1 0.8-1.9 1.2-2.9c0.4 1 0.8 1.9 1.3 2.9 C29.4 91.8 28.6 91.8 27.7 91.8z"/><path class="st1" d="M56.5 93.5c-0.4 0-0.7 0-1.1 0c-0.2 0-0.3-0.1-0.3-0.3c0-2.2 0-4.3 0-6.5c0-0.1 0-0.2 0-0.2c0.5 0 0.9 0 1.4 0 c0-0.9 0-1.7 0-2.5c-2 0-3.9 0-5.9 0c0 0.8 0 1.7 0 2.5c0.4 0 0.7 0 1.1 0c0.3 0 0.3 0 0.3 0.3c0 2 0 4 0 6c0 0.6 0 0.6-0.6 0.6 c-0.3 0-0.6 0-0.9 0c0 0.9 0 1.7 0 2.5c2.1 0 4.1 0 6.2 0c0 0 0 0 0-0.1c0-0.8 0-1.6 0-2.3C56.7 93.5 56.6 93.5 56.5 93.5z"/><path class="st1" d="M16.9 83.9c-1.1 0-2.1 0-3.1 0c0 4 0 8 0 12.1c2.5 0 5 0 7.5 0c0-0.9 0-1.9 0-2.8c-1.5 0-2.9 0-4.4 0 C16.9 90.1 16.9 87 16.9 83.9z"/><path class="st1" d="M53.8 35.5c0.1 0 0.2 0 0.2 0c2 0 4.1 0 6.1 0c0.3 0 0.6 0 0.9-0.1c1.6-0.2 2.8-1 3.8-2.3 c0.5-0.6 0.8-1.3 0.9-2.1c0.1-0.8 0.1-1.6 0.1-2.4c0 0 0-0.1 0-0.1c0 0 0 0 0 0c-10.5 0-21 0-31.5 0c-0.1 0-0.1 0-0.2 0 c0 0 0 0 0 0c0 0.5 0 1 0 1.5c0 0.1 0 0.2 0 0.3c0 0 0 0.1 0 0.1c0 0.8 0.2 1.5 0.6 2.1c1.1 1.9 2.8 2.9 5 2.9c2.1 0 4.2 0 6.3 0 c0.4 0 0.4 0.1 0.4 0.4c0 1.5 0 3 0 4.5c0 0.3-0.1 0.4-0.3 0.5c-0.5 0.3-1 0.6-1.4 0.9c-2.7 1.6-5.4 3.3-8.1 5 c-1.1 0.7-1.9 1.7-2.3 2.9c-0.2 0.4-0.1 0.9-0.2 1.3c0 0.1 0 0.2 0 0.3c0 1.6 0 3.3 0 4.9c0 0 0 0 0 0c0 0 0.1 0 0.1 0 c0.1 0 0.3-0.1 0.4-0.2c1.8-1.1 3.7-2.3 5.5-3.4c1.9-1.2 3.8-2.4 5.7-3.5c1.2-0.8 2.5-1.5 3.7-2.3c0.3-0.2 0.5-0.2 0.7 0 c0 0 0.1 0 0.1 0.1c2.2 1.4 4.4 2.7 6.5 4c2.6 1.6 5.2 3.2 7.9 4.9c0.2 0.2 0.5 0.3 0.8 0.4c0.2 0.1 0.2 0.1 0.2-0.2 c0-1.6 0-3.2 0-4.8c0-0.4 0-0.9-0.2-1.3c-0.5-1.4-1.3-2.5-2.5-3.2c-3.1-1.9-6.2-3.8-9.3-5.7c-0.3-0.2-0.4-0.4-0.4-0.7 c0-1.5 0-2.9 0-4.4c0-0.1 0-0.1 0-0.2C53.5 35.5 53.6 35.5 53.8 35.5z"/><circle class="st1" cx="50.1" cy="21.7" r="4.2"/><path class="st1" d="M74.7 62.3c1.7-1 3.2-2.1 4.4-3.6c1.9-2.4 2.9-5 2.9-8c0-7.4 0-14.9 0-22.3c0-0.2 0-0.4 0-0.6 c0-0.4-0.1-0.9-0.2-1.3c-0.7-4-2.8-7.1-6.3-9.2c-6-3.6-12.1-7-18.2-10.5c-1-0.6-2.1-1.2-3.2-1.6c-1.2-0.4-2.5-0.6-3.7-0.7 c-0.2 0-0.3 0-0.5 0c-2.3 0-4.4 0.6-6.4 1.7c-6.4 3.7-12.8 7.3-19.2 11.1c-4.2 2.5-6.4 6.3-6.4 11.1c-0.1 7.4 0 14.8 0 22.2 c0 0.7 0 1.3 0.2 2c0.7 4.1 2.9 7.2 6.5 9.3c6.2 3.6 12.4 7.1 18.5 10.7c1.7 1 3.6 1.7 5.6 1.9c2.8 0.3 5.4-0.3 7.8-1.7 C62.6 69.3 68.6 65.8 74.7 62.3z M46.6 67.2c-6.3-3.6-12.5-7.2-18.8-10.8c-1.9-1.1-3-2.7-3.4-4.8c-0.1-0.3-0.1-0.6-0.1-1 c0-3.7 0-7.4 0-11c0-3.6 0-7.3 0-10.9c0-2.5 1.2-4.5 3.3-5.8c4.6-2.7 9.1-5.3 13.7-7.9c1.8-1 3.6-2.1 5.4-3.1 c2.1-1.2 4.3-1.1 6.5 0c3.3 1.9 6.6 3.8 9.9 5.7c3 1.8 6.1 3.5 9.1 5.3c2.1 1.2 3.2 3.1 3.4 5.6c0 0.3 0 0.6 0 0.9c0 7 0 14 0 21 c0 2.7-1.2 4.7-3.5 6.1c-6.3 3.6-12.5 7.2-18.8 10.8C51.2 68.5 48.8 68.5 46.6 67.2z"/></g><g><g><path d="M7.5 94c-0.1-0.1-0.1-0.2 0-0.3c0.3-0.4 0.6-0.8 0.7-1.3c0.3-0.6 0.4-1.2 0.6-1.9c0.2-0.5 0.5-0.8 1-0.8 c0.2 0 0.3 0 0.5 0c0-0.7 0-1.4 0-2.1c-0.2 0-0.3-0.1-0.5-0.1c-0.6-0.1-1.2-0.1-1.8 0.1c-1.1 0.3-1.7 1-2 2.1 c-0.2 0.6-0.3 1.2-0.5 1.8c-0.1 0.3-0.3 0.6-0.6 0.7c-0.5 0.2-1.1 0.2-1.7 0.2c0-1.6 0-3.2 0-4.7c-1.1 0-2.1 0-3.1 0 c0 4 0 8.1 0 12.1c1 0 2.1 0 3.1 0c0-1.6 0-3.1 0-4.7c0.4 0 0.8 0 1.2 0c0.2 0 0.3 0.1 0.4 0.2c0.8 1.4 1.6 2.8 2.4 4.3 c0 0.1 0.2 0.2 0.2 0.2c1.1 0 2.2 0 3.2 0c0 0 0.1 0 0.1 0c0-0.3 0-0.5-0.1-0.7C9.6 97.3 8.5 95.7 7.5 94z"/><path d="M67.2 92.8c-0.8-0.3-1.6-0.4-2.4-0.5c-0.5-0.1-0.9-0.1-1.4-0.2c-0.5-0.1-0.7-0.4-0.7-0.9c0-0.5 0.2-0.9 0.7-1 c0.4-0.1 0.8-0.1 1.2-0.2c0.1 0 0.2 0 0.3 0c0.6 0.1 1 0.5 1.1 1.1c1 0 1.9 0 2.9 0c0-0.6-0.1-1.2-0.4-1.8c-0.6-1.1-1.6-1.7-2.7-2 c-0.4-0.1-0.7-0.1-1.1-0.2c-0.3 0-0.5 0-0.8 0c-0.4 0.1-0.8 0.1-1.1 0.2c-1.8 0.4-2.9 1.6-3.1 3.3c-0.2 1.5 0.3 2.7 1.8 3.4 c0.8 0.4 1.6 0.5 2.4 0.6c0.5 0 1 0.1 1.5 0.2c0.1 0 0.3 0.1 0.4 0.2c0.7 0.4 0.7 1.3 0.1 1.7c-0.7 0.4-1.4 0.5-2.2 0.3 c-0.6-0.2-1-0.5-1.1-1.1c-0.1 0-0.2 0-0.2 0c-0.8 0-1.6 0-2.4 0c-0.3 0-0.3 0-0.3 0.3c0.1 1.3 0.7 2.3 1.8 2.9 c2.1 1.1 4.2 1.1 6.3-0.1c1.2-0.7 1.8-1.8 1.7-3.2C69.3 94.4 68.6 93.4 67.2 92.8z"/><path d="M84.2 87.6c-0.2 0-0.5 0-0.7 0c-0.1 0-0.2 0.1-0.3 0.1c-1.3 1.4-2.5 2.7-3.8 4.1c-0.3 0.3-0.6 0.6-0.9 1 c-0.1-0.1-0.1-0.1-0.2-0.2c-1.4-1.5-2.7-2.9-4-4.4c-0.4-0.5-0.8-0.7-1.4-0.6c-0.2 0-0.3 0.1-0.3 0.3c0 3.9 0 7.7 0 11.6 c0 0.1 0 0.2 0 0.2c1.1 0 2.1 0 3.1 0c0-1.8 0-3.7 0-5.5c0 0 0.1 0 0.1-0.1c0 0.1 0.1 0.2 0.1 0.2c0.7 0.8 1.5 1.5 2.2 2.3 c0.2 0.2 0.5 0.3 0.7 0c0.7-0.8 1.5-1.5 2.2-2.3c0.1-0.1 0.1-0.1 0.2-0.2c0 1.9 0 3.7 0 5.6c1.1 0 2.1 0 3.1 0c0-0.1 0-0.2 0-0.3 c0-3.8 0-7.7 0-11.5c0 0 0-0.1 0-0.1C84.4 87.6 84.4 87.6 84.2 87.6z"/><path d="M100 93.8c0-0.5 0-0.9 0-1.3c-0.2-1.5-0.9-2.9-2.2-3.8c-1.7-1.3-3.6-1.6-5.7-1.1c-1.9 0.5-3.2 1.6-4 3.4 c-0.5 1.2-0.6 2.5-0.4 3.8c0.3 2 1.3 3.6 3.2 4.5c1.2 0.6 2.5 0.7 3.9 0.6c1.9-0.3 3.4-1.1 4.3-2.8C99.8 96 100.1 94.9 100 93.8z M96.5 95.3c-0.6 1.1-1.8 1.8-3.1 1.6c-1.3-0.2-2.3-1.1-2.6-2.4c-0.1-0.7-0.1-1.4 0.1-2c0.4-1.3 1.5-2.1 2.9-2.1 c1.6 0 2.8 1.1 3 2.7C97 93.9 96.9 94.6 96.5 95.3z"/><path d="M46.7 97.4c-0.4-0.7-0.8-1.3-1.2-2c0.2-0.2 0.5-0.4 0.7-0.6c0.9-1 1.2-2.3 1.1-3.7C47 89.4 45.7 88 44 87.7 c-0.8-0.1-1.6-0.1-2.3-0.1c-1.3 0-2.5 0-3.8 0c-0.1 0-0.2 0-0.2 0c0 4 0 8 0 12c1 0 2.1 0 3.1 0c0-0.1 0-0.2 0-0.3 c0-1.1 0-2.1 0-3.2c0-0.2 0-0.3 0.2-0.2c0.4 0 0.8 0 1.2 0c0.2 0 0.3 0.1 0.4 0.2c0.6 1.1 1.2 2.2 1.8 3.4 c0.1 0.1 0.2 0.2 0.3 0.2c0.4 0 0.8 0 1.3 0c0.6 0 1.2 0 1.8 0c0-0.3 0-0.5-0.1-0.7C47.4 98.5 47.1 97.9 46.7 97.4z M44 92.7 c-0.2 0.3-0.5 0.6-0.8 0.6c-0.8 0-1.6 0-2.4 0c0-1 0-2 0-3c0.1 0 0.2 0 0.3 0c0.6 0 1.2 0 1.8 0c0.7 0 1.2 0.4 1.3 1.1 C44.3 91.9 44.2 92.3 44 92.7z"/><path d="M34.2 97c-1.5-3.1-2.9-6.2-4.4-9.4c-0.1-0.2-0.2-0.2-0.3-0.2c-0.3 0-0.6 0-0.9 0c-0.2 0-0.3 0.1-0.4 0.2 c-1.8 3.8-3.6 7.6-5.3 11.4c-0.1 0.2-0.1 0.4-0.1 0.6c1.1 0 2.2 0 3.2 0c0.1 0 0.1-0.1 0.2-0.1c0.2-0.4 0.4-0.8 0.5-1.2 c0.1-0.1 0.1-0.2 0.3-0.2c1.4 0 2.7 0 4.1 0c0.1 0 0.2 0 0.3 0.2c0.2 0.4 0.4 0.8 0.6 1.2c0 0.1 0.1 0.1 0.2 0.1c1 0 2.1 0 3.2 0 c-0.1-0.3-0.1-0.5-0.2-0.7C34.8 98.3 34.5 97.7 34.2 97z M27.7 95.5c0.4-1 0.8-1.9 1.2-2.9c0.4 1 0.8 1.9 1.3 2.9 C29.4 95.5 28.6 95.5 27.7 95.5z"/><path d="M56.5 97.2c-0.4 0-0.7 0-1.1 0c-0.2 0-0.3-0.1-0.3-0.3c0-2.2 0-4.3 0-6.5c0-0.1 0-0.2 0-0.2c0.5 0 0.9 0 1.4 0 c0-0.9 0-1.7 0-2.5c-2 0-3.9 0-5.9 0c0 0.8 0 1.7 0 2.5c0.4 0 0.7 0 1.1 0c0.3 0 0.3 0 0.3 0.3c0 2 0 4 0 6c0 0.6 0 0.6-0.6 0.6 c-0.3 0-0.6 0-0.9 0c0 0.9 0 1.7 0 2.5c2.1 0 4.1 0 6.2 0c0 0 0 0 0-0.1c0-0.8 0-1.6 0-2.3C56.7 97.2 56.6 97.2 56.5 97.2z"/><path d="M16.9 87.6c-1.1 0-2.1 0-3.1 0c0 4 0 8 0 12.1c2.5 0 5 0 7.5 0c0-0.9 0-1.9 0-2.8c-1.5 0-2.9 0-4.4 0 C16.9 93.8 16.9 90.7 16.9 87.6z"/></g><path class="st2" d="M65.7 53.6c-0.5-1.4-1.3-2.5-2.5-3.2c-3.1-1.9-6.2-3.8-9.3-5.7c-0.3-0.2-0.4-0.4-0.4-0.7c0-1.5 0-2.9 0-4.4 c0-0.1 0-0.1 0-0.2c0-0.2 0.1-0.3 0.3-0.3c0.1 0 0.2 0 0.2 0c2 0 4.1 0 6.1 0c0.3 0 0.6 0 0.9-0.1c1.6-0.2 2.8-1 3.8-2.3 c0.5-0.6 0.8-1.3 0.9-2.1c0.1-0.8 0.1-1.6 0.1-2.4c0-0.1 0-0.2-0.1-0.1c-10.4 0-20.9 0-31.3 0c-0.1 0-0.2 0-0.3 0 c-0.1 0.1 0 0.2 0 0.3c0 0.4 0 0.9 0 1.3c0 0.1 0 0.2 0 0.3c0 0 0 0.1 0 0.1c0 0.8 0.2 1.5 0.6 2.1c1.1 1.9 2.8 2.9 5 2.9 c2.1 0 4.2 0 6.3 0c0.4 0 0.4 0.1 0.4 0.4c0 1.5 0 3 0 4.5c0 0.3-0.1 0.4-0.3 0.5c-0.5 0.3-1 0.6-1.4 0.9c-2.7 1.6-5.4 3.3-8.1 5 c-1.1 0.7-1.9 1.7-2.3 2.9c-0.2 0.4-0.1 0.9-0.2 1.3c0 0.1 0 0.2 0 0.3c0 0.1 0 0.2 0 0.3c0 1.5 0 3.1 0 4.6c0 0.1 0.1 0.1 0.1 0.1 c0.1 0 0.3-0.1 0.4-0.2c1.8-1.1 3.7-2.3 5.5-3.4c1.9-1.2 3.8-2.4 5.7-3.5c1.2-0.8 2.5-1.5 3.7-2.3c0.3-0.2 0.5-0.2 0.7 0 c0 0 0.1 0 0.1 0.1c2.2 1.4 4.4 2.7 6.5 4c2.6 1.6 5.2 3.2 7.9 4.9c0.2 0.2 0.5 0.3 0.8 0.4c0.2 0.1 0.2 0.1 0.2-0.2 c0-1.6 0-3.2 0-4.8C65.9 54.5 65.9 54 65.7 53.6z"/><circle class="st3" cx="50.1" cy="25.4" r="4.2"/><path class="st4" d="M82.1 32c0-0.2 0-0.4 0-0.6c0-0.4-0.1-0.9-0.2-1.3c-0.7-4-2.8-7.1-6.3-9.2c-6-3.6-12.1-7-18.2-10.5 c-1-0.6-2.1-1.2-3.2-1.6c-1.2-0.4-2.5-0.6-3.7-0.7c-0.2 0-0.3 0-0.5 0c-2.3 0-4.4 0.6-6.4 1.7c-6.4 3.7-12.8 7.3-19.2 11.1 c-4.2 2.5-6.4 6.3-6.4 11.1c-0.1 7.4 0 14.8 0 22.2c0 0.7 0 1.3 0.2 2c0.7 4.1 2.9 7.2 6.5 9.3c6.2 3.6 12.4 7.1 18.5 10.7 c1.7 1 3.6 1.7 5.6 1.9c2.8 0.3 5.4-0.3 7.8-1.7c6.1-3.5 12.2-7 18.3-10.5c1.7-1 3.2-2.1 4.4-3.6c1.9-2.4 2.9-5 2.9-8 C82.1 46.9 82.1 39.4 82.1 32z M75.7 54c0 2.7-1.2 4.7-3.5 6.1c-6.3 3.6-12.5 7.2-18.8 10.8c-2.3 1.3-4.6 1.3-6.8 0 c-6.3-3.6-12.5-7.2-18.8-10.8c-1.9-1.1-3-2.7-3.4-4.8c-0.1-0.3-0.1-0.6-0.1-1c0-3.7 0-7.4 0-11c0-3.6 0-7.3 0-10.9 c0-2.5 1.2-4.5 3.3-5.8c4.6-2.7 9.1-5.3 13.7-7.9c1.8-1 3.6-2.1 5.4-3.1c2.1-1.2 4.3-1.1 6.5 0c3.3 1.9 6.6 3.8 9.9 5.7 c3 1.8 6.1 3.5 9.1 5.3c2.1 1.2 3.2 3.1 3.4 5.6c0 0.3 0 0.6 0 0.9C75.7 39.9 75.7 46.9 75.7 54z"/></g></svg>